<svg xmlns="http://www.w3.org/2000/svg" viewBox="0 0 123.86 123.86"><defs><style>.cls-1{fill:#f3deba;}.cls-2{fill:#dfcdb5;}.cls-3{fill:#e0ceb5;}</style></defs><g id="Layer_2" data-name="Layer 2"><g id="Layer_1-2" data-name="Layer 1"><circle class="cls-1" cx="61.93" cy="61.93" r="61.93"/><path class="cls-2" d="M85,38.81c-6.87,0-10.55-3.6-10.58-10.38,0-6.63,3.93-10.63,10.5-10.64a10.72,10.72,0,0,1,10.53,11C95.41,35.12,91.58,38.8,85,38.81Z"/><path class="cls-3" d="M71.43,59.15c.1-3.89,3.16-6.51,7.36-6.32,3.94.18,6.64,2.88,6.58,6.61S81.55,67,78,66.72,71.32,62.75,71.43,59.15Z"/><path class="cls-3" d="M95.42,50a4.15,4.15,0,0,1,8.3.18c0,2.41-2.28,4.76-4.38,4.59S95.36,52.23,95.42,50Z"/></g></g></svg>